STARTFONT 2.1
FONT -FontForge-Henny Penny-Book-R-Normal--10-100-72-72-P-57-ISO10646-1
SIZE 10 72 72
FONTBOUNDINGBOX 13 18 -1 -6
COMMENT "Generated by fontforge, http://fontforge.sourceforge.net"
COMMENT "Copyright (c) 2012, Brownfox (gayaneh.b@gmail.com), with Reserved Font Name "Henny Penny""
STARTPROPERTIES 39
FOUNDRY "FontForge"
FAMILY_NAME "Henny Penny"
WEIGHT_NAME "Book"
SLANT "R"
SETWIDTH_NAME "Normal"
ADD_STYLE_NAME ""
PIXEL_SIZE 10
POINT_SIZE 100
RESOLUTION_X 72
RESOLUTION_Y 72
SPACING "P"
AVERAGE_WIDTH 57
CHARSET_REGISTRY "ISO10646"
CHARSET_ENCODING "1"
FONTNAME_REGISTRY ""
CHARSET_COLLECTIONS "ISO10646-1"
FONT_NAME "HennyPenny-Regular"
FACE_NAME "Henny Penny"
COPYRIGHT "Copyright (c) 2012, Brownfox (gayaneh.b@gmail.com), with Reserved Font Name "Henny Penny""
FONT_VERSION "1.001"
FONT_ASCENT 8
FONT_DESCENT 2
UNDERLINE_POSITION -1
UNDERLINE_THICKNESS 1
X_HEIGHT 6
CAP_HEIGHT 6
RAW_ASCENT 799
RAW_DESCENT 200
NORM_SPACE 3
RELATIVE_WEIGHT 40
RELATIVE_SETWIDTH 50
SUPERSCRIPT_X 0
SUPERSCRIPT_Y 3
SUPERSCRIPT_SIZE 6
SUBSCRIPT_X 0
SUBSCRIPT_Y 0
SUBSCRIPT_SIZE 6
AVG_LOWERCASE_WIDTH 50
AVG_UPPERCASE_WIDTH 71
ENDPROPERTIES
CHARS 233
STARTCHAR space
ENCODING 32
SWIDTH 270 0
DWIDTH 3 0
BBX 1 1 0 0
BITMAP
00
ENDCHAR
STARTCHAR exclam
ENCODING 33
SWIDTH 249 0
DWIDTH 2 0
BBX 1 9 1 0
BITMAP
80
80
80
80
80
80
80
00
80
ENDCHAR
STARTCHAR quotedbl
ENCODING 34
SWIDTH 292 0
DWIDTH 3 0
BBX 2 3 1 5
BITMAP
C0
C0
80
ENDCHAR
STARTCHAR numbersign
ENCODING 35
SWIDTH 1030 0
DWIDTH 10 0
BBX 10 11 0 -3
BITMAP
0400
0A00
0A00
FDC0
1400
1B00
6C00
3000
5000
1000
2000
ENDCHAR
STARTCHAR dollar
ENCODING 36
SWIDTH 799 0
DWIDTH 8 0
BBX 6 11 1 -2
BITMAP
14
3C
78
78
30
18
A8
A8
E8
F8
40
ENDCHAR
STARTCHAR percent
ENCODING 37
SWIDTH 789 0
DWIDTH 8 0
BBX 7 9 1 0
BITMAP
E4
94
E8
10
20
2C
52
92
9C
ENDCHAR
STARTCHAR ampersand
ENCODING 38
SWIDTH 773 0
DWIDTH 8 0
BBX 7 10 0 -1
BITMAP
30
50
50
64
5C
A4
94
D8
7E
04
ENDCHAR
STARTCHAR quotesingle
ENCODING 39
SWIDTH 174 0
DWIDTH 2 0
BBX 1 3 1 5
BITMAP
80
80
80
ENDCHAR
STARTCHAR parenleft
ENCODING 40
SWIDTH 431 0
DWIDTH 4 0
BBX 4 14 0 -4
BITMAP
40
40
80
80
80
80
80
80
80
C0
40
40
20
10
ENDCHAR
STARTCHAR parenright
ENCODING 41
SWIDTH 443 0
DWIDTH 4 0
BBX 4 9 0 -2
BITMAP
C0
20
10
10
10
10
20
20
C0
ENDCHAR
STARTCHAR asterisk
ENCODING 42
SWIDTH 490 0
DWIDTH 5 0
BBX 4 4 0 5
BITMAP
20
30
E0
50
ENDCHAR
STARTCHAR plus
ENCODING 43
SWIDTH 440 0
DWIDTH 4 0
BBX 4 5 0 1
BITMAP
20
20
F0
20
20
ENDCHAR
STARTCHAR comma
ENCODING 44
SWIDTH 251 0
DWIDTH 3 0
BBX 2 3 0 -1
BITMAP
C0
40
80
ENDCHAR
STARTCHAR hyphen
ENCODING 45
SWIDTH 436 0
DWIDTH 4 0
BBX 4 1 0 2
BITMAP
F0
ENDCHAR
STARTCHAR period
ENCODING 46
SWIDTH 238 0
DWIDTH 2 0
BBX 1 2 1 0
BITMAP
80
80
ENDCHAR
STARTCHAR slash
ENCODING 47
SWIDTH 690 0
DWIDTH 7 0
BBX 7 9 0 0
BITMAP
06
04
08
10
10
20
40
80
80
ENDCHAR
STARTCHAR zero
ENCODING 48
SWIDTH 723 0
DWIDTH 7 0
BBX 7 7 0 1
BITMAP
38
46
82
82
82
46
3C
ENDCHAR
STARTCHAR one
ENCODING 49
SWIDTH 505 0
DWIDTH 5 0
BBX 5 9 0 -1
BITMAP
40
40
E0
20
20
20
20
70
C8
ENDCHAR
STARTCHAR two
ENCODING 50
SWIDTH 534 0
DWIDTH 5 0
BBX 5 9 0 -1
BITMAP
70
90
90
10
20
40
80
48
30
ENDCHAR
STARTCHAR three
ENCODING 51
SWIDTH 511 0
DWIDTH 5 0
BBX 5 8 0 -1
BITMAP
70
A0
20
10
88
88
88
70
ENDCHAR
STARTCHAR four
ENCODING 52
SWIDTH 712 0
DWIDTH 7 0
BBX 7 10 0 -2
BITMAP
10
10
70
50
88
7A
0C
08
1C
02
ENDCHAR
STARTCHAR five
ENCODING 53
SWIDTH 757 0
DWIDTH 8 0
BBX 8 9 0 -1
BITMAP
09
16
22
18
84
84
84
8C
78
ENDCHAR
STARTCHAR six
ENCODING 54
SWIDTH 598 0
DWIDTH 6 0
BBX 6 8 0 0
BITMAP
38
44
B8
CC
84
84
44
38
ENDCHAR
STARTCHAR seven
ENCODING 55
SWIDTH 507 0
DWIDTH 5 0
BBX 5 7 0 0
BITMAP
F8
90
90
20
20
20
60
ENDCHAR
STARTCHAR eight
ENCODING 56
SWIDTH 476 0
DWIDTH 5 0
BBX 4 8 1 0
BITMAP
60
A0
E0
60
B0
90
90
E0
ENDCHAR
STARTCHAR nine
ENCODING 57
SWIDTH 601 0
DWIDTH 6 0
BBX 5 8 0 0
BITMAP
70
88
88
88
78
08
18
F0
ENDCHAR
STARTCHAR colon
ENCODING 58
SWIDTH 246 0
DWIDTH 2 0
BBX 1 5 1 0
BITMAP
80
80
00
00
80
ENDCHAR
STARTCHAR semicolon
ENCODING 59
SWIDTH 266 0
DWIDTH 3 0
BBX 2 7 1 -2
BITMAP
80
80
00
00
C0
40
80
ENDCHAR
STARTCHAR less
ENCODING 60
SWIDTH 522 0
DWIDTH 5 0
BBX 5 4 0 1
BITMAP
18
60
C0
38
ENDCHAR
STARTCHAR equal
ENCODING 61
SWIDTH 655 0
DWIDTH 7 0
BBX 6 3 0 2
BITMAP
1C
E0
F8
ENDCHAR
STARTCHAR greater
ENCODING 62
SWIDTH 533 0
DWIDTH 5 0
BBX 5 5 0 1
BITMAP
80
40
30
18
60
ENDCHAR
STARTCHAR question
ENCODING 63
SWIDTH 564 0
DWIDTH 6 0
BBX 5 10 0 -1
BITMAP
70
88
88
C8
10
20
C0
40
00
40
ENDCHAR
STARTCHAR at
ENCODING 64
SWIDTH 898 0
DWIDTH 9 0
BBX 8 10 1 -3
BITMAP
3C
62
41
BD
CD
C9
CD
76
64
3C
ENDCHAR
STARTCHAR A
ENCODING 65
SWIDTH 784 0
DWIDTH 8 0
BBX 8 9 0 -1
BITMAP
30
18
28
28
2C
5C
46
C2
67
ENDCHAR
STARTCHAR B
ENCODING 66
SWIDTH 685 0
DWIDTH 7 0
BBX 7 10 0 -2
BITMAP
FC
24
24
28
3C
26
22
26
3C
C0
ENDCHAR
STARTCHAR C
ENCODING 67
SWIDTH 742 0
DWIDTH 7 0
BBX 7 9 0 -1
BITMAP
02
3E
42
C2
80
C2
C2
62
3C
ENDCHAR
STARTCHAR D
ENCODING 68
SWIDTH 726 0
DWIDTH 7 0
BBX 8 8 0 -2
BITMAP
7E
22
23
23
22
3C
60
80
ENDCHAR
STARTCHAR E
ENCODING 69
SWIDTH 557 0
DWIDTH 6 0
BBX 5 9 0 -1
BITMAP
98
E8
40
60
60
60
40
48
F8
ENDCHAR
STARTCHAR F
ENCODING 70
SWIDTH 533 0
DWIDTH 5 0
BBX 6 9 0 0
BITMAP
0C
F4
68
30
30
30
20
20
F0
ENDCHAR
STARTCHAR G
ENCODING 71
SWIDTH 750 0
DWIDTH 8 0
BBX 8 8 0 0
BITMAP
03
3A
46
C4
82
CE
C4
7A
ENDCHAR
STARTCHAR H
ENCODING 72
SWIDTH 743 0
DWIDTH 7 0
BBX 7 10 0 -1
BITMAP
F2
4C
44
44
44
7C
44
44
4E
E0
ENDCHAR
STARTCHAR I
ENCODING 73
SWIDTH 438 0
DWIDTH 4 0
BBX 6 11 -1 -2
BITMAP
FC
30
20
20
20
20
20
20
20
70
80
ENDCHAR
STARTCHAR J
ENCODING 74
SWIDTH 628 0
DWIDTH 6 0
BBX 7 12 0 -3
BITMAP
02
3C
08
08
08
08
08
08
08
D0
D0
E0
ENDCHAR
STARTCHAR K
ENCODING 75
SWIDTH 866 0
DWIDTH 9 0
BBX 8 9 1 0
BITMAP
10
EE
48
50
70
51
4D
47
E0
ENDCHAR
STARTCHAR L
ENCODING 76
SWIDTH 660 0
DWIDTH 7 0
BBX 7 7 0 1
BITMAP
F8
20
20
20
24
24
7E
ENDCHAR
STARTCHAR M
ENCODING 77
SWIDTH 1089 0
DWIDTH 11 0
BBX 11 8 0 -1
BITMAP
00C0
3080
2B80
2680
2440
2040
E0E0
C100
ENDCHAR
STARTCHAR N
ENCODING 78
SWIDTH 799 0
DWIDTH 8 0
BBX 9 9 0 -2
BITMAP
E380
3200
5A00
4E00
4600
4200
4200
4000
7000
ENDCHAR
STARTCHAR O
ENCODING 79
SWIDTH 747 0
DWIDTH 7 0
BBX 7 7 0 0
BITMAP
3C
46
82
82
82
46
3C
ENDCHAR
STARTCHAR P
ENCODING 80
SWIDTH 623 0
DWIDTH 6 0
BBX 6 8 0 -1
BITMAP
FC
24
24
3C
20
20
20
F8
ENDCHAR
STARTCHAR Q
ENCODING 81
SWIDTH 804 0
DWIDTH 8 0
BBX 12 12 0 -4
BITMAP
3C00
4700
8300
8100
8D00
D300
7200
3D00
0100
0110
0190
00E0
ENDCHAR
STARTCHAR R
ENCODING 82
SWIDTH 869 0
DWIDTH 9 0
BBX 9 7 0 0
BITMAP
FC00
6400
2400
3C00
2880
2C80
F380
ENDCHAR
STARTCHAR S
ENCODING 83
SWIDTH 517 0
DWIDTH 5 0
BBX 5 9 0 -1
BITMAP
78
48
50
20
10
98
88
88
F0
ENDCHAR
STARTCHAR T
ENCODING 84
SWIDTH 659 0
DWIDTH 7 0
BBX 7 10 0 -1
BITMAP
FE
92
94
90
10
10
10
10
3C
40
ENDCHAR
STARTCHAR U
ENCODING 85
SWIDTH 690 0
DWIDTH 7 0
BBX 7 7 0 0
BITMAP
30
EE
44
44
44
64
38
ENDCHAR
STARTCHAR V
ENCODING 86
SWIDTH 798 0
DWIDTH 8 0
BBX 9 8 0 0
BITMAP
1000
F180
2700
1200
1A00
0C00
0C00
0800
ENDCHAR
STARTCHAR W
ENCODING 87
SWIDTH 1120 0
DWIDTH 11 0
BBX 12 8 0 -1
BITMAP
0070
2020
C440
2440
2A80
3380
2300
0100
ENDCHAR
STARTCHAR X
ENCODING 88
SWIDTH 868 0
DWIDTH 9 0
BBX 9 8 0 -1
BITMAP
FC00
3300
1A00
0C00
1400
2200
E700
1080
ENDCHAR
STARTCHAR Y
ENCODING 89
SWIDTH 796 0
DWIDTH 8 0
BBX 9 10 0 -1
BITMAP
1000
E380
2200
1400
1800
0800
0800
0800
0800
3C00
ENDCHAR
STARTCHAR Z
ENCODING 90
SWIDTH 627 0
DWIDTH 6 0
BBX 7 9 0 -1
BITMAP
80
78
90
10
20
24
44
7C
42
ENDCHAR
STARTCHAR bracketleft
ENCODING 91
SWIDTH 344 0
DWIDTH 3 0
BBX 3 10 0 -2
BITMAP
60
40
80
80
80
80
80
80
80
E0
ENDCHAR
STARTCHAR backslash
ENCODING 92
SWIDTH 347 0
DWIDTH 3 0
BBX 3 10 0 -1
BITMAP
80
80
80
40
40
40
40
20
20
20
ENDCHAR
STARTCHAR bracketright
ENCODING 93
SWIDTH 334 0
DWIDTH 3 0
BBX 3 10 0 -3
BITMAP
60
20
20
20
20
20
20
20
20
C0
ENDCHAR
STARTCHAR asciicircum
ENCODING 94
SWIDTH 658 0
DWIDTH 7 0
BBX 6 2 0 6
BITMAP
30
DC
ENDCHAR
STARTCHAR underscore
ENCODING 95
SWIDTH 678 0
DWIDTH 7 0
BBX 6 1 0 -3
BITMAP
FC
ENDCHAR
STARTCHAR grave
ENCODING 96
SWIDTH 278 0
DWIDTH 3 0
BBX 2 2 1 7
BITMAP
80
40
ENDCHAR
STARTCHAR a
ENCODING 97
SWIDTH 527 0
DWIDTH 5 0
BBX 5 7 0 -1
BITMAP
60
90
50
70
90
F8
08
ENDCHAR
STARTCHAR b
ENCODING 98
SWIDTH 582 0
DWIDTH 6 0
BBX 7 12 -1 -1
BITMAP
20
E0
20
20
20
20
3C
26
26
24
3C
40
ENDCHAR
STARTCHAR c
ENCODING 99
SWIDTH 437 0
DWIDTH 4 0
BBX 4 6 0 1
BITMAP
70
B0
80
90
90
70
ENDCHAR
STARTCHAR d
ENCODING 100
SWIDTH 523 0
DWIDTH 5 0
BBX 5 9 1 0
BITMAP
30
10
10
10
10
F0
90
90
F8
ENDCHAR
STARTCHAR e
ENCODING 101
SWIDTH 434 0
DWIDTH 4 0
BBX 4 5 0 0
BITMAP
70
90
F0
90
70
ENDCHAR
STARTCHAR f
ENCODING 102
SWIDTH 299 0
DWIDTH 3 0
BBX 6 13 -1 -2
BITMAP
18
24
28
20
78
A0
20
20
20
20
20
70
80
ENDCHAR
STARTCHAR g
ENCODING 103
SWIDTH 567 0
DWIDTH 6 0
BBX 6 10 0 -4
BITMAP
18
6C
90
90
70
70
88
88
88
F0
ENDCHAR
STARTCHAR h
ENCODING 104
SWIDTH 566 0
DWIDTH 6 0
BBX 6 10 0 0
BITMAP
60
C0
40
40
40
78
48
48
48
FC
ENDCHAR
STARTCHAR i
ENCODING 105
SWIDTH 301 0
DWIDTH 3 0
BBX 3 7 0 1
BITMAP
40
00
C0
40
40
40
E0
ENDCHAR
STARTCHAR j
ENCODING 106
SWIDTH 367 0
DWIDTH 4 0
BBX 5 11 -1 -5
BITMAP
10
00
38
18
08
08
08
48
88
90
60
ENDCHAR
STARTCHAR k
ENCODING 107
SWIDTH 567 0
DWIDTH 6 0
BBX 6 11 -1 -1
BITMAP
E0
20
20
20
20
3C
30
34
3C
2C
78
ENDCHAR
STARTCHAR l
ENCODING 108
SWIDTH 354 0
DWIDTH 4 0
BBX 4 9 0 0
BITMAP
20
E0
20
20
20
20
20
20
70
ENDCHAR
STARTCHAR m
ENCODING 109
SWIDTH 708 0
DWIDTH 7 0
BBX 7 5 0 0
BITMAP
40
FC
74
C4
22
ENDCHAR
STARTCHAR n
ENCODING 110
SWIDTH 584 0
DWIDTH 6 0
BBX 5 7 0 -1
BITMAP
80
D8
68
48
48
F8
08
ENDCHAR
STARTCHAR o
ENCODING 111
SWIDTH 503 0
DWIDTH 5 0
BBX 5 5 0 1
BITMAP
70
88
88
C8
70
ENDCHAR
STARTCHAR p
ENCODING 112
SWIDTH 509 0
DWIDTH 5 0
BBX 5 9 0 -4
BITMAP
C0
70
48
48
70
40
40
40
E0
ENDCHAR
STARTCHAR q
ENCODING 113
SWIDTH 505 0
DWIDTH 5 0
BBX 5 10 0 -4
BITMAP
18
F0
90
F0
10
10
10
10
30
08
ENDCHAR
STARTCHAR r
ENCODING 114
SWIDTH 414 0
DWIDTH 4 0
BBX 4 7 0 0
BITMAP
F0
50
40
40
40
40
E0
ENDCHAR
STARTCHAR s
ENCODING 115
SWIDTH 482 0
DWIDTH 5 0
BBX 5 7 0 -1
BITMAP
38
50
30
50
48
C8
38
ENDCHAR
STARTCHAR t
ENCODING 116
SWIDTH 434 0
DWIDTH 4 0
BBX 5 8 0 0
BITMAP
20
20
F0
60
40
40
50
38
ENDCHAR
STARTCHAR u
ENCODING 117
SWIDTH 744 0
DWIDTH 7 0
BBX 7 5 0 0
BITMAP
D8
48
44
6E
30
ENDCHAR
STARTCHAR v
ENCODING 118
SWIDTH 600 0
DWIDTH 6 0
BBX 6 6 0 0
BITMAP
60
EC
28
28
10
10
ENDCHAR
STARTCHAR w
ENCODING 119
SWIDTH 745 0
DWIDTH 7 0
BBX 7 6 0 0
BITMAP
66
CA
6C
7C
24
20
ENDCHAR
STARTCHAR x
ENCODING 120
SWIDTH 548 0
DWIDTH 5 0
BBX 6 6 0 1
BITMAP
20
E0
7C
30
30
78
ENDCHAR
STARTCHAR y
ENCODING 121
SWIDTH 659 0
DWIDTH 7 0
BBX 7 11 0 -5
BITMAP
20
CE
44
44
24
3C
04
08
28
48
30
ENDCHAR
STARTCHAR z
ENCODING 122
SWIDTH 460 0
DWIDTH 5 0
BBX 5 5 0 0
BITMAP
F0
A0
20
48
F8
ENDCHAR
STARTCHAR braceleft
ENCODING 123
SWIDTH 460 0
DWIDTH 5 0
BBX 5 13 0 -3
BITMAP
30
28
20
20
20
20
C0
60
20
20
20
28
30
ENDCHAR
STARTCHAR bar
ENCODING 124
SWIDTH 368 0
DWIDTH 4 0
BBX 1 11 2 -2
BITMAP
80
80
80
80
80
80
80
80
80
80
80
ENDCHAR
STARTCHAR braceright
ENCODING 125
SWIDTH 476 0
DWIDTH 5 0
BBX 5 11 0 -3
BITMAP
60
B0
30
10
08
10
08
08
08
08
30
ENDCHAR
STARTCHAR asciitilde
ENCODING 126
SWIDTH 733 0
DWIDTH 7 0
BBX 7 2 0 2
BITMAP
72
9C
ENDCHAR
STARTCHAR nonbreakingspace
ENCODING 160
SWIDTH 270 0
DWIDTH 3 0
BBX 1 1 0 0
BITMAP
00
ENDCHAR
STARTCHAR exclamdown
ENCODING 161
SWIDTH 247 0
DWIDTH 2 0
BBX 1 11 1 -1
BITMAP
80
00
00
80
80
80
80
80
80
80
80
ENDCHAR
STARTCHAR cent
ENCODING 162
SWIDTH 799 0
DWIDTH 8 0
BBX 5 9 2 -2
BITMAP
40
70
C8
D8
A0
E8
70
10
10
ENDCHAR
STARTCHAR sterling
ENCODING 163
SWIDTH 799 0
DWIDTH 8 0
BBX 6 9 1 -1
BITMAP
38
48
58
40
B0
20
10
64
7C
ENDCHAR
STARTCHAR currency
ENCODING 164
SWIDTH 732 0
DWIDTH 7 0
BBX 6 6 1 1
BITMAP
10
F0
88
88
F0
8C
ENDCHAR
STARTCHAR yen
ENCODING 165
SWIDTH 799 0
DWIDTH 8 0
BBX 8 10 0 -2
BITMAP
F1
36
14
1C
08
3F
0E
08
1C
20
ENDCHAR
STARTCHAR brokenbar
ENCODING 166
SWIDTH 341 0
DWIDTH 3 0
BBX 1 12 2 -3
BITMAP
80
80
80
80
00
00
80
80
80
80
80
80
ENDCHAR
STARTCHAR section
ENCODING 167
SWIDTH 546 0
DWIDTH 5 0
BBX 4 11 1 -3
BITMAP
70
90
40
60
90
90
70
30
10
50
70
ENDCHAR
STARTCHAR dieresis
ENCODING 168
SWIDTH 393 0
DWIDTH 4 0
BBX 2 1 1 6
BITMAP
C0
ENDCHAR
STARTCHAR copyright
ENCODING 169
SWIDTH 1023 0
DWIDTH 10 0
BBX 9 9 1 -2
BITMAP
3E00
6900
D880
AC80
A480
9880
8100
4300
3E00
ENDCHAR
STARTCHAR ordfeminine
ENCODING 170
SWIDTH 558 0
DWIDTH 6 0
BBX 4 5 1 3
BITMAP
E0
A0
E0
B0
D0
ENDCHAR
STARTCHAR guillemotleft
ENCODING 171
SWIDTH 608 0
DWIDTH 6 0
BBX 6 8 0 -2
BITMAP
08
18
28
48
F8
28
14
14
ENDCHAR
STARTCHAR logicalnot
ENCODING 172
SWIDTH 616 0
DWIDTH 6 0
BBX 6 3 0 2
BITMAP
FC
04
04
ENDCHAR
STARTCHAR uni00AD
ENCODING 173
SWIDTH 436 0
DWIDTH 4 0
BBX 4 1 0 2
BITMAP
F0
ENDCHAR
STARTCHAR registered
ENCODING 174
SWIDTH 1048 0
DWIDTH 10 0
BBX 9 9 1 -2
BITMAP
3E00
6100
FC80
9480
9C80
9E80
FF80
6300
3E00
ENDCHAR
STARTCHAR macron
ENCODING 175
SWIDTH 382 0
DWIDTH 4 0
BBX 3 1 0 8
BITMAP
E0
ENDCHAR
STARTCHAR degree
ENCODING 176
SWIDTH 346 0
DWIDTH 3 0
BBX 2 2 1 8
BITMAP
C0
C0
ENDCHAR
STARTCHAR plusminus
ENCODING 177
SWIDTH 580 0
DWIDTH 6 0
BBX 5 4 1 1
BITMAP
20
F8
20
F0
ENDCHAR
STARTCHAR twosuperior
ENCODING 178
SWIDTH 365 0
DWIDTH 4 0
BBX 3 6 0 3
BITMAP
60
A0
20
40
A0
40
ENDCHAR
STARTCHAR threesuperior
ENCODING 179
SWIDTH 371 0
DWIDTH 4 0
BBX 3 5 1 4
BITMAP
C0
80
E0
A0
C0
ENDCHAR
STARTCHAR acute
ENCODING 180
SWIDTH 234 0
DWIDTH 2 0
BBX 1 2 1 8
BITMAP
80
80
ENDCHAR
STARTCHAR mu
ENCODING 181
SWIDTH 634 0
DWIDTH 6 0
BBX 6 8 0 -3
BITMAP
80
90
90
94
EC
80
80
80
ENDCHAR
STARTCHAR paragraph
ENCODING 182
SWIDTH 707 0
DWIDTH 7 0
BBX 7 13 0 -4
BITMAP
04
78
E8
E8
E8
28
28
28
28
28
2C
22
C0
ENDCHAR
STARTCHAR periodcentered
ENCODING 183
SWIDTH 238 0
DWIDTH 2 0
BBX 1 2 1 3
BITMAP
80
80
ENDCHAR
STARTCHAR cedilla
ENCODING 184
SWIDTH 332 0
DWIDTH 3 0
BBX 2 3 1 -2
BITMAP
80
40
C0
ENDCHAR
STARTCHAR onesuperior
ENCODING 185
SWIDTH 336 0
DWIDTH 3 0
BBX 3 4 0 5
BITMAP
20
60
20
E0
ENDCHAR
STARTCHAR ordmasculine
ENCODING 186
SWIDTH 503 0
DWIDTH 5 0
BBX 4 5 0 3
BITMAP
70
90
90
90
70
ENDCHAR
STARTCHAR guillemotright
ENCODING 187
SWIDTH 778 0
DWIDTH 8 0
BBX 6 10 1 -3
BITMAP
40
A0
90
C8
3C
48
90
A0
A0
40
ENDCHAR
STARTCHAR onequarter
ENCODING 188
SWIDTH 876 0
DWIDTH 9 0
BBX 8 9 0 0
BITMAP
22
64
24
EC
16
1B
2F
42
87
ENDCHAR
STARTCHAR onehalf
ENCODING 189
SWIDTH 762 0
DWIDTH 8 0
BBX 7 10 0 -1
BITMAP
22
64
24
E8
14
1A
22
44
8A
04
ENDCHAR
STARTCHAR threequarters
ENCODING 190
SWIDTH 922 0
DWIDTH 9 0
BBX 8 9 1 0
BITMAP
C2
84
E8
AC
D4
2E
4E
42
87
ENDCHAR
STARTCHAR questiondown
ENCODING 191
SWIDTH 571 0
DWIDTH 6 0
BBX 5 10 0 -2
BITMAP
60
60
00
20
20
40
D8
C8
C8
70
ENDCHAR
STARTCHAR Agrave
ENCODING 192
SWIDTH 784 0
DWIDTH 8 0
BBX 8 11 0 -1
BITMAP
20
10
30
18
28
28
2C
5C
46
C2
67
ENDCHAR
STARTCHAR Aacute
ENCODING 193
SWIDTH 784 0
DWIDTH 8 0
BBX 8 12 0 -1
BITMAP
08
10
00
30
18
28
28
2C
5C
46
C2
67
ENDCHAR
STARTCHAR Acircumflex
ENCODING 194
SWIDTH 784 0
DWIDTH 8 0
BBX 8 12 0 -1
BITMAP
18
2C
00
30
18
28
28
2C
5C
46
C2
67
ENDCHAR
STARTCHAR Atilde
ENCODING 195
SWIDTH 784 0
DWIDTH 8 0
BBX 8 11 0 -1
BITMAP
30
18
30
18
28
28
2C
5C
46
C2
67
ENDCHAR
STARTCHAR Adieresis
ENCODING 196
SWIDTH 784 0
DWIDTH 8 0
BBX 8 11 0 -1
BITMAP
14
00
30
18
28
28
2C
5C
46
C2
67
ENDCHAR
STARTCHAR Aring
ENCODING 197
SWIDTH 784 0
DWIDTH 8 0
BBX 8 12 0 -1
BITMAP
18
18
18
30
18
28
28
2C
5C
46
C2
67
ENDCHAR
STARTCHAR AE
ENCODING 198
SWIDTH 1172 0
DWIDTH 12 0
BBX 12 10 0 -2
BITMAP
00C0
0F40
0640
0A80
0B80
13A0
1F60
1330
23C0
F400
ENDCHAR
STARTCHAR Ccedilla
ENCODING 199
SWIDTH 742 0
DWIDTH 7 0
BBX 7 12 0 -4
BITMAP
02
3E
42
C2
80
C2
C2
62
3C
10
08
18
ENDCHAR
STARTCHAR Egrave
ENCODING 200
SWIDTH 557 0
DWIDTH 6 0
BBX 5 11 0 -1
BITMAP
40
20
98
E8
40
60
60
60
40
48
F8
ENDCHAR
STARTCHAR Eacute
ENCODING 201
SWIDTH 557 0
DWIDTH 6 0
BBX 5 12 0 -1
BITMAP
10
10
00
98
E8
40
60
60
60
40
48
F8
ENDCHAR
STARTCHAR Ecircumflex
ENCODING 202
SWIDTH 557 0
DWIDTH 6 0
BBX 5 12 0 -1
BITMAP
30
58
00
98
E8
40
60
60
60
40
48
F8
ENDCHAR
STARTCHAR Edieresis
ENCODING 203
SWIDTH 557 0
DWIDTH 6 0
BBX 5 11 0 -1
BITMAP
28
00
98
E8
40
60
60
60
40
48
F8
ENDCHAR
STARTCHAR Igrave
ENCODING 204
SWIDTH 438 0
DWIDTH 4 0
BBX 6 12 -1 -2
BITMAP
20
FC
30
20
20
20
20
20
20
20
70
80
ENDCHAR
STARTCHAR Iacute
ENCODING 205
SWIDTH 438 0
DWIDTH 4 0
BBX 6 13 -1 -2
BITMAP
08
10
FC
30
20
20
20
20
20
20
20
70
80
ENDCHAR
STARTCHAR Icircumflex
ENCODING 206
SWIDTH 438 0
DWIDTH 4 0
BBX 6 13 -1 -2
BITMAP
10
28
FC
30
20
20
20
20
20
20
20
70
80
ENDCHAR
STARTCHAR Idieresis
ENCODING 207
SWIDTH 438 0
DWIDTH 4 0
BBX 6 12 -1 -2
BITMAP
28
FC
30
20
20
20
20
20
20
20
70
80
ENDCHAR
STARTCHAR Eth
ENCODING 208
SWIDTH 730 0
DWIDTH 7 0
BBX 8 8 0 -2
BITMAP
7C
26
23
73
23
26
38
C0
ENDCHAR
STARTCHAR Ntilde
ENCODING 209
SWIDTH 799 0
DWIDTH 8 0
BBX 9 12 0 -2
BITMAP
1800
0400
0000
E380
3200
5A00
4E00
4600
4200
4200
4000
7000
ENDCHAR
STARTCHAR Ograve
ENCODING 210
SWIDTH 747 0
DWIDTH 7 0
BBX 7 10 0 0
BITMAP
20
10
00
3C
46
82
82
82
46
3C
ENDCHAR
STARTCHAR Oacute
ENCODING 211
SWIDTH 747 0
DWIDTH 7 0
BBX 7 11 0 0
BITMAP
08
10
00
00
3C
46
82
82
82
46
3C
ENDCHAR
STARTCHAR Ocircumflex
ENCODING 212
SWIDTH 747 0
DWIDTH 7 0
BBX 7 11 0 0
BITMAP
10
28
00
00
3C
46
82
82
82
46
3C
ENDCHAR
STARTCHAR Otilde
ENCODING 213
SWIDTH 747 0
DWIDTH 7 0
BBX 7 10 0 0
BITMAP
30
18
00
3C
46
82
82
82
46
3C
ENDCHAR
STARTCHAR Odieresis
ENCODING 214
SWIDTH 747 0
DWIDTH 7 0
BBX 7 10 0 0
BITMAP
14
00
00
3C
46
82
82
82
46
3C
ENDCHAR
STARTCHAR multiply
ENCODING 215
SWIDTH 541 0
DWIDTH 5 0
BBX 5 6 0 0
BITMAP
08
90
60
50
40
80
ENDCHAR
STARTCHAR Oslash
ENCODING 216
SWIDTH 747 0
DWIDTH 7 0
BBX 7 9 0 -1
BITMAP
02
3C
46
8A
92
A2
46
7C
80
ENDCHAR
STARTCHAR Ugrave
ENCODING 217
SWIDTH 690 0
DWIDTH 7 0
BBX 7 10 0 0
BITMAP
10
08
00
30
EE
44
44
44
64
38
ENDCHAR
STARTCHAR Uacute
ENCODING 218
SWIDTH 690 0
DWIDTH 7 0
BBX 7 10 0 0
BITMAP
02
04
00
30
EE
44
44
44
64
38
ENDCHAR
STARTCHAR Ucircumflex
ENCODING 219
SWIDTH 690 0
DWIDTH 7 0
BBX 7 10 0 0
BITMAP
08
34
00
30
EE
44
44
44
64
38
ENDCHAR
STARTCHAR Udieresis
ENCODING 220
SWIDTH 690 0
DWIDTH 7 0
BBX 7 10 0 0
BITMAP
14
00
00
30
EE
44
44
44
64
38
ENDCHAR
STARTCHAR Yacute
ENCODING 221
SWIDTH 796 0
DWIDTH 8 0
BBX 9 12 0 -1
BITMAP
0600
0400
1000
E380
2200
1400
1800
0800
0800
0800
0800
3C00
ENDCHAR
STARTCHAR Thorn
ENCODING 222
SWIDTH 479 0
DWIDTH 5 0
BBX 5 10 0 -1
BITMAP
E0
40
70
58
58
70
40
40
40
E0
ENDCHAR
STARTCHAR germandbls
ENCODING 223
SWIDTH 591 0
DWIDTH 6 0
BBX 6 11 0 -1
BITMAP
60
A0
A0
A0
B0
D8
8C
44
44
58
80
ENDCHAR
STARTCHAR agrave
ENCODING 224
SWIDTH 527 0
DWIDTH 5 0
BBX 5 9 0 -1
BITMAP
40
20
60
90
50
70
90
F8
08
ENDCHAR
STARTCHAR aacute
ENCODING 225
SWIDTH 527 0
DWIDTH 5 0
BBX 5 10 0 -1
BITMAP
10
20
00
60
90
50
70
90
F8
08
ENDCHAR
STARTCHAR acircumflex
ENCODING 226
SWIDTH 527 0
DWIDTH 5 0
BBX 5 10 0 -1
BITMAP
20
D0
00
60
90
50
70
90
F8
08
ENDCHAR
STARTCHAR atilde
ENCODING 227
SWIDTH 527 0
DWIDTH 5 0
BBX 5 9 0 -1
BITMAP
60
30
60
90
50
70
90
F8
08
ENDCHAR
STARTCHAR adieresis
ENCODING 228
SWIDTH 527 0
DWIDTH 5 0
BBX 5 8 0 -1
BITMAP
60
60
90
50
70
90
F8
08
ENDCHAR
STARTCHAR aring
ENCODING 229
SWIDTH 527 0
DWIDTH 5 0
BBX 5 10 0 -1
BITMAP
30
50
30
60
90
50
70
90
F8
08
ENDCHAR
STARTCHAR ae
ENCODING 230
SWIDTH 700 0
DWIDTH 7 0
BBX 7 7 0 -1
BITMAP
0C
D4
A4
7C
A2
B2
DC
ENDCHAR
STARTCHAR ccedilla
ENCODING 231
SWIDTH 437 0
DWIDTH 4 0
BBX 4 9 0 -2
BITMAP
70
B0
80
90
90
70
40
A0
60
ENDCHAR
STARTCHAR egrave
ENCODING 232
SWIDTH 434 0
DWIDTH 4 0
BBX 4 8 0 0
BITMAP
40
20
00
70
90
F0
90
70
ENDCHAR
STARTCHAR eacute
ENCODING 233
SWIDTH 434 0
DWIDTH 4 0
BBX 4 9 0 0
BITMAP
10
20
00
00
70
90
F0
90
70
ENDCHAR
STARTCHAR ecircumflex
ENCODING 234
SWIDTH 434 0
DWIDTH 4 0
BBX 4 9 0 0
BITMAP
20
D0
00
00
70
90
F0
90
70
ENDCHAR
STARTCHAR edieresis
ENCODING 235
SWIDTH 434 0
DWIDTH 4 0
BBX 4 7 0 0
BITMAP
60
00
70
90
F0
90
70
ENDCHAR
STARTCHAR igrave
ENCODING 236
SWIDTH 301 0
DWIDTH 3 0
BBX 3 8 0 1
BITMAP
80
40
00
C0
40
40
40
E0
ENDCHAR
STARTCHAR iacute
ENCODING 237
SWIDTH 301 0
DWIDTH 3 0
BBX 3 8 0 1
BITMAP
20
40
00
C0
40
40
40
E0
ENDCHAR
STARTCHAR icircumflex
ENCODING 238
SWIDTH 301 0
DWIDTH 3 0
BBX 3 8 0 1
BITMAP
40
A0
00
C0
40
40
40
E0
ENDCHAR
STARTCHAR idieresis
ENCODING 239
SWIDTH 301 0
DWIDTH 3 0
BBX 3 6 0 1
BITMAP
C0
C0
40
40
40
E0
ENDCHAR
STARTCHAR eth
ENCODING 240
SWIDTH 476 0
DWIDTH 5 0
BBX 6 10 -1 -1
BITMAP
10
70
A8
28
04
3C
24
24
24
18
ENDCHAR
STARTCHAR ntilde
ENCODING 241
SWIDTH 584 0
DWIDTH 6 0
BBX 5 9 0 -1
BITMAP
30
18
80
D8
68
48
48
F8
08
ENDCHAR
STARTCHAR ograve
ENCODING 242
SWIDTH 400 0
DWIDTH 4 0
BBX 7 8 0 2
BITMAP
04
02
44
24
58
90
90
70
ENDCHAR
STARTCHAR oacute
ENCODING 243
SWIDTH 400 0
DWIDTH 4 0
BBX 7 8 0 2
BITMAP
04
12
24
04
78
90
90
70
ENDCHAR
STARTCHAR ocircumflex
ENCODING 244
SWIDTH 400 0
DWIDTH 4 0
BBX 7 8 0 2
BITMAP
04
22
D4
04
78
90
90
70
ENDCHAR
STARTCHAR otilde
ENCODING 245
SWIDTH 400 0
DWIDTH 4 0
BBX 7 8 0 2
BITMAP
04
02
64
34
58
90
90
70
ENDCHAR
STARTCHAR odieresis
ENCODING 246
SWIDTH 400 0
DWIDTH 4 0
BBX 7 8 0 2
BITMAP
04
02
04
64
58
90
90
70
ENDCHAR
STARTCHAR divide
ENCODING 247
SWIDTH 592 0
DWIDTH 6 0
BBX 5 5 0 1
BITMAP
20
00
F8
00
20
ENDCHAR
STARTCHAR oslash
ENCODING 248
SWIDTH 396 0
DWIDTH 4 0
BBX 4 6 0 1
BITMAP
20
60
D0
D0
60
80
ENDCHAR
STARTCHAR ugrave
ENCODING 249
SWIDTH 744 0
DWIDTH 7 0
BBX 7 7 0 0
BITMAP
10
10
D8
48
44
6E
30
ENDCHAR
STARTCHAR uacute
ENCODING 250
SWIDTH 744 0
DWIDTH 7 0
BBX 7 8 0 0
BITMAP
08
10
00
D8
48
44
6E
30
ENDCHAR
STARTCHAR ucircumflex
ENCODING 251
SWIDTH 744 0
DWIDTH 7 0
BBX 7 8 0 0
BITMAP
10
68
00
D8
48
44
6E
30
ENDCHAR
STARTCHAR udieresis
ENCODING 252
SWIDTH 744 0
DWIDTH 7 0
BBX 7 7 0 0
BITMAP
30
00
D8
48
44
6E
30
ENDCHAR
STARTCHAR yacute
ENCODING 253
SWIDTH 659 0
DWIDTH 7 0
BBX 7 13 0 -5
BITMAP
08
08
20
CE
44
44
24
3C
04
08
28
48
30
ENDCHAR
STARTCHAR thorn
ENCODING 254
SWIDTH 514 0
DWIDTH 5 0
BBX 5 14 0 -5
BITMAP
40
C0
40
40
70
48
48
48
78
40
40
40
40
F0
ENDCHAR
STARTCHAR ydieresis
ENCODING 255
SWIDTH 659 0
DWIDTH 7 0
BBX 7 12 0 -5
BITMAP
18
20
CE
44
44
24
3C
04
08
28
48
30
ENDCHAR
STARTCHAR dotlessi
ENCODING 305
SWIDTH 301 0
DWIDTH 3 0
BBX 3 5 0 1
BITMAP
C0
40
40
40
E0
ENDCHAR
STARTCHAR OE
ENCODING 338
SWIDTH 1132 0
DWIDTH 11 0
BBX 11 11 0 -2
BITMAP
0040
3FC0
4600
8200
8280
C380
C280
6620
3A20
07E0
0800
ENDCHAR
STARTCHAR oe
ENCODING 339
SWIDTH 798 0
DWIDTH 8 0
BBX 8 4 0 1
BITMAP
66
9F
99
7E
ENDCHAR
STARTCHAR circumflex
ENCODING 710
SWIDTH 483 0
DWIDTH 5 0
BBX 3 2 1 7
BITMAP
40
A0
ENDCHAR
STARTCHAR caron
ENCODING 711
SWIDTH 428 0
DWIDTH 4 0
BBX 4 3 0 7
BITMAP
10
E0
40
ENDCHAR
STARTCHAR ring
ENCODING 730
SWIDTH 330 0
DWIDTH 3 0
BBX 2 3 1 8
BITMAP
C0
C0
C0
ENDCHAR
STARTCHAR tilde
ENCODING 732
SWIDTH 433 0
DWIDTH 4 0
BBX 3 2 1 7
BITMAP
80
60
ENDCHAR
STARTCHAR mu.dup1
ENCODING 956
SWIDTH 634 0
DWIDTH 6 0
BBX 6 8 0 -3
BITMAP
80
90
90
94
EC
80
80
80
ENDCHAR
STARTCHAR endash
ENCODING 8211
SWIDTH 436 0
DWIDTH 4 0
BBX 4 1 0 2
BITMAP
F0
ENDCHAR
STARTCHAR emdash
ENCODING 8212
SWIDTH 651 0
DWIDTH 7 0
BBX 6 1 0 2
BITMAP
FC
ENDCHAR
STARTCHAR quoteleft
ENCODING 8216
SWIDTH 287 0
DWIDTH 3 0
BBX 2 3 1 5
BITMAP
C0
C0
C0
ENDCHAR
STARTCHAR quoteright
ENCODING 8217
SWIDTH 291 0
DWIDTH 3 0
BBX 2 3 1 5
BITMAP
C0
40
80
ENDCHAR
STARTCHAR quotesinglbase
ENCODING 8218
SWIDTH 272 0
DWIDTH 3 0
BBX 2 3 1 -1
BITMAP
C0
40
80
ENDCHAR
STARTCHAR quotedblleft
ENCODING 8220
SWIDTH 445 0
DWIDTH 4 0
BBX 3 4 1 4
BITMAP
60
A0
E0
E0
ENDCHAR
STARTCHAR quotedblright
ENCODING 8221
SWIDTH 444 0
DWIDTH 4 0
BBX 4 3 0 5
BITMAP
F0
50
A0
ENDCHAR
STARTCHAR quotedblbase
ENCODING 8222
SWIDTH 482 0
DWIDTH 5 0
BBX 4 3 1 -2
BITMAP
F0
50
60
ENDCHAR
STARTCHAR bullet
ENCODING 8226
SWIDTH 351 0
DWIDTH 4 0
BBX 3 2 1 3
BITMAP
E0
E0
ENDCHAR
STARTCHAR guilsinglleft
ENCODING 8249
SWIDTH 465 0
DWIDTH 5 0
BBX 4 6 0 -1
BITMAP
20
20
40
A0
10
10
ENDCHAR
STARTCHAR guilsinglright
ENCODING 8250
SWIDTH 449 0
DWIDTH 5 0
BBX 3 6 1 -1
BITMAP
80
40
60
C0
80
80
ENDCHAR
STARTCHAR fraction
ENCODING 8260
SWIDTH 406 0
DWIDTH 4 0
BBX 6 9 -1 0
BITMAP
04
08
08
10
20
40
40
80
80
ENDCHAR
STARTCHAR foursuperior
ENCODING 8308
SWIDTH 473 0
DWIDTH 5 0
BBX 4 6 0 3
BITMAP
40
60
B0
F0
20
70
ENDCHAR
STARTCHAR Euro
ENCODING 8364
SWIDTH 799 0
DWIDTH 8 0
BBX 8 8 0 0
BITMAP
1F
31
62
78
E8
E2
22
3C
ENDCHAR
STARTCHAR minus
ENCODING 8722
SWIDTH 436 0
DWIDTH 4 0
BBX 4 1 0 2
BITMAP
F0
ENDCHAR
STARTCHAR f_f
ENCODING 64256
SWIDTH 467 0
DWIDTH 5 0
BBX 6 15 0 -3
BITMAP
30
50
4C
54
54
50
78
D0
50
50
48
4C
70
60
F0
ENDCHAR
STARTCHAR .notdef
ENCODING -1
SWIDTH 270 0
DWIDTH 3 0
BBX 2 6 0 0
BITMAP
C0
C0
C0
C0
C0
C0
ENDCHAR
STARTCHAR .null
ENCODING -1
SWIDTH 0 0
DWIDTH 0 0
BBX 1 1 0 0
BITMAP
00
ENDCHAR
STARTCHAR nonmarkingreturn
ENCODING -1
SWIDTH 270 0
DWIDTH 3 0
BBX 1 1 0 0
BITMAP
00
ENDCHAR
STARTCHAR dieresis.case
ENCODING -1
SWIDTH 393 0
DWIDTH 4 0
BBX 3 1 1 8
BITMAP
A0
ENDCHAR
STARTCHAR o.cmp
ENCODING -1
SWIDTH 400 0
DWIDTH 4 0
BBX 7 8 0 2
BITMAP
04
02
04
04
78
90
90
70
ENDCHAR
STARTCHAR n_n
ENCODING -1
SWIDTH 1024 0
DWIDTH 10 0
BBX 9 7 0 -1
BITMAP
8000
FD80
4E80
4C80
4F80
F800
0800
ENDCHAR
STARTCHAR a_a
ENCODING -1
SWIDTH 911 0
DWIDTH 9 0
BBX 10 7 0 0
BITMAP
0700
0500
E100
AF00
6D00
BF00
D8C0
ENDCHAR
STARTCHAR t_h
ENCODING -1
SWIDTH 854 0
DWIDTH 9 0
BBX 9 13 0 -3
BITMAP
3800
0800
2800
4800
F800
4F00
4900
4F00
6D00
3D00
3D00
0700
0080
ENDCHAR
STARTCHAR s_s
ENCODING -1
SWIDTH 654 0
DWIDTH 7 0
BBX 7 9 -1 -1
BITMAP
02
3E
2A
28
14
8A
7A
BA
1C
ENDCHAR
STARTCHAR t_t
ENCODING -1
SWIDTH 569 0
DWIDTH 6 0
BBX 6 9 0 -1
BITMAP
10
7C
F0
50
50
54
4C
68
38
ENDCHAR
STARTCHAR e_e
ENCODING -1
SWIDTH 782 0
DWIDTH 8 0
BBX 7 6 0 0
BITMAP
6C
92
F4
D6
7A
06
ENDCHAR
STARTCHAR o_o
ENCODING -1
SWIDTH 751 0
DWIDTH 8 0
BBX 10 9 0 1
BITMAP
0080
00C0
0080
0080
7F00
9200
9200
9E00
6000
ENDCHAR
STARTCHAR l_l
ENCODING -1
SWIDTH 573 0
DWIDTH 6 0
BBX 6 10 0 -1
BITMAP
58
C8
48
48
48
48
48
4C
D0
20
ENDCHAR
STARTCHAR z_z
ENCODING -1
SWIDTH 875 0
DWIDTH 9 0
BBX 9 7 0 -1
BITMAP
3C00
0800
F800
3400
5D80
8100
FF00
ENDCHAR
STARTCHAR j_j
ENCODING -1
SWIDTH 577 0
DWIDTH 6 0
BBX 7 14 -1 -6
BITMAP
04
04
10
0C
3C
1E
0A
0A
0A
4A
8A
92
74
1C
ENDCHAR
STARTCHAR f_b
ENCODING -1
SWIDTH 731 0
DWIDTH 7 0
BBX 7 13 0 -2
BITMAP
30
48
58
48
F8
C8
48
48
4E
4A
4E
70
80
ENDCHAR
STARTCHAR f_k
ENCODING -1
SWIDTH 708 0
DWIDTH 7 0
BBX 7 11 0 -1
BITMAP
20
78
58
50
50
DC
58
5C
5A
D6
3C
ENDCHAR
STARTCHAR f_h
ENCODING -1
SWIDTH 873 0
DWIDTH 9 0
BBX 10 13 -1 -2
BITMAP
1C00
2400
2C00
2C00
3C00
6400
A400
2780
2480
24C0
2D00
3200
C000
ENDCHAR
ENDFONT
